<svg width="128" height="128" viewBox="0 0 128 128" fill="none" xmlns="http://www.w3.org/2000/svg">
<path d="M6 51.6129L63 8.25806L120 51.6129" stroke="white" stroke-width="3" stroke-linecap="round" stroke-linejoin="round"/>
<path d="M108 30.9677V14.4516H86" stroke="white" stroke-width="3" stroke-linecap="round" stroke-linejoin="round"/>
<path d="M21.5 55.7419C21.5 54.9135 20.8284 54.2419 20 54.2419C19.1716 54.2419 18.5 54.9135 18.5 55.7419H21.5ZM109.5 55.7419C109.5 54.9135 108.828 54.2419 108 54.2419C107.172 54.2419 106.5 54.9135 106.5 55.7419H109.5ZM108 119.742V121.242H109.5V119.742H108ZM20 119.742H18.5C18.5 120.57 19.1716 121.242 20 121.242V119.742ZM109.5 119.742V55.7419H106.5V119.742H109.5ZM18.5 55.7419V119.742H21.5V55.7419H18.5ZM20 121.242H108V118.242H20V121.242Z" fill="white"/>
</svg>
