<svg width="128" height="128" viewBox="0 0 128 128" fill="none" xmlns="http://www.w3.org/2000/svg">
<path d="M63.9281 127.153C63.6204 127.153 63.3141 127.052 63.0626 126.855L30.8178 101.655C30.4764 101.39 30.2783 100.981 30.2783 100.548C30.2783 100.115 30.4778 99.7066 30.8178 99.4411L63.0626 74.2396C63.4841 73.9094 64.0601 73.8476 64.5435 74.085C65.0268 74.3197 65.3331 74.81 65.3331 75.3481V86.5221C86.4783 85.9067 104.843 71.4338 110.285 50.9011C110.448 50.2857 111.007 49.8558 111.643 49.8558C112.28 49.8558 112.839 50.2843 113.002 50.9011C114.129 55.1541 114.701 59.5405 114.701 63.9423C114.701 91.4691 92.6814 113.949 65.3331 114.695V125.748C65.3331 126.286 65.0268 126.775 64.5435 127.01C64.3482 127.107 64.1374 127.153 63.9281 127.153ZM33.965 100.548L62.5231 122.867V113.308C62.5231 112.531 63.1525 111.903 63.9281 111.903C90.3744 111.903 111.891 90.3887 111.891 63.9409C111.891 61.53 111.709 59.1232 111.348 56.7431C103.914 76.1869 85.1197 89.3532 63.9281 89.3532C63.1525 89.3532 62.5231 88.7251 62.5231 87.9482V78.2298L33.965 100.548Z" fill="white"/>
<path d="M16.2131 78.0008C15.5752 78.0008 15.0174 77.5709 14.8545 76.9555C13.7277 72.7053 13.1572 68.3189 13.1572 63.9157C13.1558 36.3889 35.175 13.9089 62.5233 13.1614V2.1083C62.5233 1.57159 62.8296 1.08124 63.3129 0.845203C63.7948 0.610568 64.3695 0.669578 64.7938 1.00116L97.0399 26.2012C97.38 26.4668 97.5795 26.8756 97.5795 27.3084C97.5795 27.7411 97.38 28.15 97.0399 28.4155L64.7938 53.6156C64.3695 53.9458 63.7948 54.0048 63.3129 53.7716C62.8296 53.5355 62.5233 53.0452 62.5233 52.5085V41.3345C41.3781 41.9499 23.0133 56.4242 17.5703 76.9555C17.4074 77.5709 16.8496 78.0008 16.2131 78.0008ZM65.3333 4.98995V14.5482C65.3333 15.3237 64.7039 15.9532 63.9283 15.9532C37.482 15.9532 15.9658 37.4679 15.9658 63.9157C15.9658 66.3266 16.1471 68.7334 16.5067 71.1121C23.942 51.6683 42.7367 38.5034 63.9283 38.5034C64.7039 38.5034 65.3333 39.1329 65.3333 39.9084V49.6268L93.8913 27.3084L65.3333 4.98995Z" fill="white"/>
</svg>
